<?xml version="1.0" encoding="UTF-8" standalone="no"?>
<svg
   xmlns:dc="http://purl.org/dc/elements/1.1/"
   xmlns:cc="http://creativecommons.org/ns#"
   xmlns:rdf="http://www.w3.org/1999/02/22-rdf-syntax-ns#"
   xmlns:svg="http://www.w3.org/2000/svg"
   xmlns="http://www.w3.org/2000/svg"
   id="svg8"
   version="1.1"
   viewBox="0 0 264.58334 264.58334"
   height="1000.0001"
   width="1000">
  <defs
     id="defs2" />
  <metadata
     id="metadata5">
    <rdf:RDF>
      <cc:Work
         rdf:about="">
        <dc:format>image/svg+xml</dc:format>
        <dc:type
           rdf:resource="http://purl.org/dc/dcmitype/StillImage" />
        <dc:title></dc:title>
      </cc:Work>
    </rdf:RDF>
  </metadata>
  <g
     transform="translate(98.273811,12.184529)"
     id="layer1"
     style="fill:#ffffff;fill-opacity:1">
    <path
       id="path21"
       d="M 7.4685825,14.368347 H -71.814127 V 225.93915 H 139.72656 v -79.30901 h -26.70787 v 52.6724 H -45.226391 V 41.045014 H 7.4685825 Z"
       style="fill:#3781cb;stroke:#367dc6;stroke-opacity:1;fill-opacity:1" />
    <path
       id="path23"
       d="M -71.395847,120.01183 V 14.586928 H -32.315078 6.7656914 V 27.724984 40.86304 H -19.501711 -45.769114 v 79.46923 79.46923 h 79.442875 79.442879 v -26.27612 -26.27611 h 13.1337 13.1337 v 39.09372 39.09374 H 33.994095 -71.395847 Z"
       style="fill:none;stroke-width:0.64077461" />
    <path
       id="path25"
       d="M 39.501999,14.368347 H 139.68651 V 114.6662 L 102.20741,77.174672 45.928705,133.47205 20.78247,108.31749 77.061183,52.020099 Z"
       style="fill:#3781cb;stroke:#367dc6;stroke-opacity:1;fill-opacity:1" />
    <path
       id="path27"
       d="M 33.538651,120.55529 21.28647,108.29904 49.389311,80.185517 77.492154,52.071994 75.896886,50.435063 C 75.019491,49.534756 70.010645,44.680007 64.766121,39.646737 59.5216,34.61347 55.310663,30.415275 55.408489,30.317416 c 0.09783,-0.09786 -3.32214,-3.681283 -7.599925,-7.963163 L 40.030768,14.569015 H 89.760197 139.48963 V 64.316356 114.06369 L 120.9893,95.559296 c -10.17517,-10.177418 -18.64433,-18.5044 -18.82032,-18.5044 -0.176,0 -12.860462,12.545242 -28.187691,27.878314 -15.327233,15.33308 -27.940316,27.87832 -28.029076,27.87832 -0.08875,0 -5.674862,-5.51532 -12.413562,-12.25624 z"
       style="fill:none;stroke-width:0.3203873" />
    <path
       transform="matrix(0.26458332,0,0,0.26458332,-98.273811,-12.184529)"
       id="path114"
       d="M 497.76515,501.97807 451.35074,455.54718 557.76845,349.12228 664.18615,242.6974 604.17493,182.33889 c -33.00617,-33.19717 -64.4867,-65.01921 -69.95674,-70.71564 l -9.94551,-10.35714 h 186.7474 186.7474 v 187.49453 187.49454 l -70.00093,-69.99 -70.00094,-69.99001 -106.07408,106.0669 c -58.34072,58.3368 -106.39758,106.0669 -106.79301,106.0669 -0.39543,0 -21.60544,-20.8939 -47.13337,-46.4309 z"
       style="fill:#3781cb;fill-opacity:1;stroke:#367dc6;stroke-width:1.42857146;stroke-opacity:1" />
    <path
       transform="matrix(0.26458332,0,0,0.26458332,-98.273811,-12.184529)"
       id="path116"
       d="M 100.62462,499.83754 V 101.26611 h 148.57143 148.57143 v 49.28571 49.28572 h -99.28906 -99.28905 l 0.36048,300.35714 0.36048,300.35714 299.64286,0.36049 299.64286,0.36049 V 701.26945 601.26611 h 49.28571 49.28572 V 749.83754 898.40897 H 499.19605 100.62462 Z"
       style="fill:#3781cb;fill-opacity:1;stroke:#367dc6;stroke-width:1.42857146;stroke-opacity:1" />
  </g>
</svg>
